<svg width="119" height="119" viewBox="0 0 119 119" fill="none" xmlns="http://www.w3.org/2000/svg">
<path d="M58.6723 16.3512C37.7452 16.3512 19.2585 27.788 11.5744 45.4905L11.1361 46.4978L11.5744 47.5079C19.2565 65.2085 37.7442 76.6463 58.6702 76.6463C79.5973 76.6463 98.083 65.2094 105.766 47.5088L106.203 46.4996L105.766 45.4923C98.083 27.7899 79.5973 16.3521 58.6723 16.3512ZM99.3274 47.2487C92.1643 61.7689 76.2057 71.1517 58.6702 71.1517C41.1368 71.1517 25.1772 61.7689 18.0131 47.2469L17.6433 46.4978L18.0131 45.7487C25.1782 31.2276 41.1368 21.8457 58.6702 21.8457C76.2047 21.8466 92.1633 31.2294 99.3274 45.7505L99.6962 46.4996L99.3274 47.2487Z" fill="white"/>
<path d="M51.9928 43.0181C51.9928 43.0181 49.2592 49.6802 49.1806 49.7526C49.1413 49.7883 54.925 49.7883 54.9653 49.7883L52.4281 43.0181C52.2699 42.5868 52.151 42.5868 51.9928 43.0181Z" fill="white"/>
<path d="M64.9487 42.9646C63.2448 47.1771 62.3329 49.6249 62.4518 49.6249H68.1579C68.1579 49.5892 68.1186 49.4454 65.385 42.9646C65.2268 42.6047 65.1089 42.6047 64.9487 42.9646Z" fill="white"/>
<path d="M59.1025 26.3435C47.2258 26.3435 37.5981 35.0935 37.5981 45.8875C37.5981 56.6806 47.2258 65.4316 59.1025 65.4316C70.9782 65.4316 80.606 56.6806 80.606 45.8875C80.606 35.0935 70.9782 26.3435 59.1025 26.3435ZM65.3064 56.9416C62.9697 56.9416 61.2255 55.7539 60.1555 53.3766L63.9582 43.7987H53.4982L57.2223 53.3766C56.1532 55.7539 54.4101 56.9416 52.0724 56.9416C49.7347 56.9416 47.9916 55.7539 46.8822 53.3409L52.151 41.8536C52.4674 41.8188 57.3815 41.8536 57.3815 41.8188V36.5258C57.3412 35.0139 60.0356 35.0139 59.9973 36.5258V41.8188C59.9973 41.8536 65.1865 41.8536 65.2258 41.8536L70.4946 53.3409C69.3872 55.7539 67.643 56.9416 65.3064 56.9416Z" fill="white"/>
</svg>
