<svg width="65" height="65" viewBox="0 0 65 65" fill="none" xmlns="http://www.w3.org/2000/svg">
<g clip-path="url(#clip0_38_59)">
<path d="M32.29 15.95C32.29 15.94 32.28 15.94 32.28 15.93C32.26 15.89 32.24 15.86 32.21 15.82L32.17 15.78C32.09 15.68 31.96 15.63 31.82 15.63H24.06C23.88 14.95 23.35 14.43 22.68 14.25V13.01C22.68 12.73 22.45 12.51 22.18 12.51C21.9 12.51 21.68 12.73 21.68 13.01V14.25C21 14.42 20.47 14.95 20.3 15.63H12.54C12.4 15.63 12.27 15.68 12.19 15.78C12.17 15.8 12.16 15.81 12.15 15.82C12.12 15.86 12.1 15.89 12.08 15.93C12.08 15.94 12.07 15.94 12.07 15.95L9.70004 22.2C9.68004 22.26 9.67004 22.32 9.67004 22.38C9.67004 23.96 10.95 25.25 12.53 25.25C14.12 25.25 15.4 23.96 15.4 22.38C15.4 22.32 15.39 22.26 15.37 22.2L13.26 16.63H20.3C20.48 17.3 21 17.83 21.68 18V28.2H21.03C19.59 28.2 18.42 29.37 18.42 30.81V31.4C18.42 31.67 18.64 31.9 18.92 31.9H25.44C25.71 31.9 25.94 31.67 25.94 31.4V30.81C25.94 29.37 24.77 28.2 23.33 28.2H22.68V18C23.35 17.82 23.88 17.3 24.06 16.63H31.09L28.98 22.2C28.96 22.26 28.95 22.32 28.95 22.38C28.95 23.96 30.24 25.25 31.82 25.25C33.4 25.25 34.69 23.96 34.69 22.38C34.69 22.32 34.68 22.26 34.66 22.2L32.29 15.95Z" fill="black"/>
<path d="M14.4701 8.62001C14.7101 8.48001 14.7901 8.18001 14.6601 7.94001C14.5201 7.70001 14.2201 7.62001 13.9801 7.75001C8.79007 10.71 5.57007 16.25 5.57007 22.2C5.57007 22.48 5.79007 22.7 6.07007 22.7C6.35007 22.7 6.57007 22.48 6.57007 22.2C6.56007 16.61 9.59007 11.4 14.4701 8.62001Z" fill="black"/>
<path d="M17.9 7.15001C17.94 7.15001 17.99 7.14001 18.03 7.13001C19.37 6.76001 20.77 6.57001 22.17 6.57001C22.17 6.57001 22.17 6.57001 22.18 6.57001C22.46 6.57001 22.68 6.35001 22.68 6.07001C22.68 5.79001 22.46 5.57001 22.18 5.57001C22.18 5.57001 22.18 5.57001 22.17 5.57001C20.68 5.57001 19.19 5.77001 17.77 6.16001C17.5 6.23001 17.35 6.51001 17.42 6.77001C17.48 7.01001 17.68 7.15001 17.9 7.15001Z" fill="black"/>
<path d="M64.33 56.06L51 42.72L47.79 39.51C47.7 39.41 47.57 39.34 47.42 39.34C46.36 39.34 45.19 39.96 44.31 40.56L39.7 35.95C39.68 35.93 39.66 35.93 39.64 35.91C42.61 32.13 44.4 27.37 44.4 22.2C44.4 9.96 34.44 0 22.2 0C9.96 0 0 9.96 0 22.2C0 34.44 9.96 44.41 22.2 44.41C27.37 44.41 32.13 42.63 35.91 39.65C35.92 39.67 35.93 39.69 35.95 39.71L40.56 44.32C39.95 45.21 39.34 46.37 39.34 47.43C39.34 47.58 39.41 47.71 39.51 47.8L56.04 64.35C56.13 64.44 56.26 64.5 56.39 64.5C59.34 64.5 64.48 59.36 64.48 56.41C64.48 56.28 64.43 56.15 64.33 56.06ZM40.84 47.75C41.6 47.52 42.43 47.06 43.25 46.46C43.28 46.44 43.31 46.43 43.33 46.41C43.33 46.41 43.33 46.4 43.34 46.4C44.46 45.57 45.54 44.49 46.37 43.37C46.37 43.37 46.38 43.37 46.38 43.36C46.4 43.34 46.41 43.31 46.43 43.29C47.03 42.47 47.49 41.64 47.72 40.87L50.12 43.27C49.9 45.64 45.61 49.94 43.24 50.15L40.84 47.75ZM2.88 22.2C2.88 11.55 11.52 2.91 22.18 2.91C32.83 2.91 41.47 11.55 41.47 22.2C41.47 32.86 32.83 41.5 22.18 41.5C11.52 41.5 2.88 32.86 2.88 22.2ZM39 36.67L44.37 42.04C44.16 43.25 43.35 44.08 42.03 44.38L36.66 39.01C37.49 38.3 38.27 37.51 39 36.67Z" fill="black"/>
</g>
<defs>
<clipPath id="clip0_38_59">
<rect width="65" height="65" fill="white"/>
</clipPath>
</defs>
</svg>
