<svg width="202" height="253" viewBox="0 0 202 253" fill="none" xmlns="http://www.w3.org/2000/svg">
<path d="M82.5777 42.4028C56.6207 42.4028 35.593 63.4927 35.593 89.4806C35.593 115.489 56.6207 136.558 82.5777 136.558C91.506 136.558 99.8685 134.069 106.98 129.717C107.403 130.668 107.929 131.579 108.636 132.389L135.643 162.951C137.541 165.117 140.249 166.27 142.935 166.27C145.42 166.27 147.945 165.278 149.824 163.376L156.268 156.919C158.166 155.036 159.156 152.506 159.156 149.997C159.156 147.305 158.005 144.612 155.863 142.69L125.361 115.649C124.553 114.94 123.644 114.415 122.716 113.989C127.059 106.844 129.563 98.4652 129.563 89.4988C129.563 63.4698 108.515 42.4005 82.5777 42.4005V42.4028ZM55.045 117.048C47.9955 109.985 43.6525 100.249 43.6525 89.4814C43.6525 78.6933 47.9955 68.9781 55.045 61.9147C62.0945 54.8512 71.811 50.4996 82.5572 50.4996C93.324 50.4996 103.02 54.8512 110.069 61.9147C117.119 68.9781 121.463 78.7139 121.463 89.4814C121.463 99.905 117.383 109.297 110.757 116.299L109.343 117.716C102.354 124.376 92.961 128.464 82.5572 128.464C71.811 128.484 62.115 124.112 55.045 117.048ZM118.412 121.136C119.038 121.136 119.604 121.359 119.988 121.703L150.47 148.785C150.894 149.17 151.057 149.594 151.057 150.039C151.057 150.444 150.915 150.849 150.552 151.234L144.108 157.69C143.724 158.075 143.34 158.196 142.936 158.196C142.492 158.196 142.088 158.034 141.684 157.609L114.677 127.046C114.334 126.642 114.111 126.075 114.111 125.467C114.111 124.82 114.353 124.213 114.737 123.808C115.423 123.16 116.111 122.472 116.757 121.784C117.161 121.379 117.766 121.136 118.412 121.136Z" fill="white"/>
</svg>
