<svg width="178" height="223" viewBox="0 0 178 223" fill="none" xmlns="http://www.w3.org/2000/svg">
<path d="M91.492 37.9992C85.44 31.22 77.252 27.1168 68.174 26.4032C59.096 25.868 50.374 28.7224 43.61 34.788C36.846 40.8536 32.752 49.06 32.04 58.1584C31.506 67.2568 34.354 75.9984 40.406 82.7776C47.17 90.4488 56.426 94.3736 66.038 94.3736C74.048 94.3736 81.88 91.5192 88.466 85.9888C102.35 73.6792 103.774 52.0928 91.492 37.9992ZM85.44 82.7776C73.158 93.66 54.29 92.4112 43.61 79.9232C38.448 74.036 35.778 66.3648 36.312 58.3368C36.846 50.4872 40.406 43.1728 46.28 37.9992C51.798 33.1824 58.562 30.6848 65.86 30.6848C66.572 30.6848 67.106 30.6848 67.818 30.6848C75.65 31.22 82.948 34.788 88.11 40.6752C98.968 53.1632 97.722 72.0736 85.44 82.7776Z" fill="black"/>
<path d="M153.08 143.255L114.276 98.6552C114.098 98.4768 113.742 98.4768 113.564 98.2984C113.386 98.12 113.03 97.9416 112.852 97.9416C111.784 97.9416 110.538 98.2984 109.114 98.8336L98.968 87.2376C104.486 80.4584 107.868 72.252 108.402 63.332C109.114 51.9144 105.376 41.032 97.9 32.4688C90.424 23.9056 80.1 18.732 68.708 18.0184C57.316 17.3048 46.458 21.0512 37.914 28.544C29.37 36.0368 24.208 46.384 23.496 57.8016C22.784 69.2192 26.522 80.1016 33.998 88.6648C41.474 97.228 51.798 102.402 63.19 103.115C64.08 103.115 65.148 103.294 66.038 103.294C73.692 103.294 81.168 101.153 87.754 97.228L97.9 108.824C97.188 110.251 96.654 111.5 96.476 112.749C96.476 113.284 96.654 113.819 97.01 114.354L135.814 158.776C137.06 159.846 138.662 160.56 140.62 160.56C141.154 160.56 141.866 160.56 142.4 160.382C144.714 159.846 147.206 158.598 149.52 156.635C151.656 154.673 153.258 152.354 153.97 150.034C155.038 147.537 154.682 145.039 153.08 143.255ZM63.368 98.6552C53.222 97.9416 43.788 93.3032 37.202 85.632C30.438 77.9608 27.234 68.1488 27.768 57.8016C28.48 47.6328 33.108 38.1776 40.762 31.5768C47.704 25.3328 56.604 22.1216 65.86 22.1216C66.75 22.1216 67.64 22.1216 68.53 22.1216C78.676 22.8352 88.11 27.4736 94.696 35.1448C101.46 42.816 104.664 52.628 104.13 62.9752C103.418 73.144 98.79 82.5992 91.136 89.2C83.482 95.9792 73.692 99.3688 63.368 98.6552ZM93.984 92.5896C94.696 91.876 95.23 91.1624 95.942 90.4488L105.198 100.974C104.308 101.51 103.418 102.045 102.528 102.758C101.638 103.472 100.926 104.186 100.214 105.078L91.136 94.552C92.026 93.8384 93.094 93.3032 93.984 92.5896ZM150.054 148.786C149.52 150.391 148.274 151.997 146.85 153.424C145.248 154.851 143.468 155.743 141.688 156.1C141.154 156.278 139.73 156.457 139.018 155.565L100.926 112.035C101.104 111.322 101.46 110.608 102.172 109.538C103.062 108.289 104.13 107.04 105.376 105.97C106.622 104.899 108.046 104.007 109.47 103.294C110.36 102.758 111.25 102.58 111.962 102.402L150.054 146.11C150.588 146.823 150.232 148.25 150.054 148.786Z" fill="black"/>
<path d="M68.352 37.464C67.284 37.2856 66.038 38.1776 65.86 39.248C65.682 40.4968 66.572 41.5672 67.64 41.7456C76.184 42.9944 81.168 46.384 82.77 52.4496C82.948 53.3416 83.838 54.0552 84.906 54.0552C85.084 54.0552 85.262 54.0552 85.44 54.0552C86.508 53.6984 87.22 52.628 87.042 51.3792C84.906 43.5296 78.676 38.8912 68.352 37.464Z" fill="black"/>
</svg>
