<svg width="210" height="125" viewBox="0 0 210 125" fill="none" xmlns="http://www.w3.org/2000/svg">
<path d="M109.747 51.084C101.817 30.986 82.743 18.001 61.147 18C39.552 18 20.475 30.986 12.546 51.083L11.822 52.917L12.546 54.753C20.474 74.854 39.55 87.839 61.146 87.839C82.741 87.839 101.817 74.855 109.747 54.755L110.471 52.919L109.747 51.084ZM61.146 77.837C44.351 77.837 29.439 68.12 22.621 52.915C29.44 37.711 44.351 27.998 61.146 27.998C77.94 27.999 92.854 37.715 99.671 52.917C92.853 68.125 77.94 77.837 61.146 77.837Z" fill="white"/>
<path d="M61.438 34C51.193 34 42.859 42.333 42.859 52.579C42.859 62.823 51.193 71.157 61.438 71.157C71.684 71.157 80.019 62.823 80.019 52.579C80.019 42.334 71.685 34 61.438 34Z" fill="white"/>
<path d="M173.224 38.8293C173.108 38.8293 157.908 38.8292 157.908 38.7122V21.6562C158.023 16.7812 150.134 16.7812 150.249 21.6562V38.7122C150.249 38.8292 135.86 38.7123 134.933 38.8293L119.5 75.8453C122.749 83.6193 127.855 87.4482 134.701 87.4482C141.547 87.4482 146.652 83.6202 149.784 75.9622L138.878 45.0962H169.51L158.373 75.9622C161.506 83.6202 166.612 87.4482 173.457 87.4482C180.303 87.4482 185.408 83.6203 188.657 75.8453L173.224 38.8293ZM143.171 75.9613C143.054 75.9613 126.113 75.9613 126.23 75.8453C126.461 75.6123 134.468 54.1462 134.468 54.1462C134.932 52.7542 135.28 52.7542 135.744 54.1462L143.171 75.9613ZM181.811 75.3783H165.101C164.753 75.3783 167.422 67.4882 172.412 53.9132C172.877 52.7542 173.224 52.7542 173.689 53.9132C181.695 74.7992 181.811 75.2633 181.811 75.3783Z" fill="white"/>
</svg>
